<svg width="66" height="64" viewBox="0 0 66 64" fill="none" xmlns="http://www.w3.org/2000/svg">
<path d="M61.9814 45.1519C51.5757 37.3567 41.9379 35.1347 31.5412 40.5272C23.0596 33.5901 10.7299 38.9826 1.4624 45.1519C17.2967 68.0317 46.1019 70.1093 61.9904 45.1519H61.9814Z" stroke="#222222" stroke-width="1.5" stroke-linecap="round" stroke-linejoin="round"/>
<path d="M61.9814 45.1519C51.5757 37.3567 41.9379 35.1347 31.5412 40.5272C23.0596 33.5901 10.7299 38.9826 1.4624 45.1519C17.2967 68.0317 46.1019 70.1093 61.9904 45.1519H61.9814Z" fill="white" stroke="#222222" stroke-width="1.5" stroke-linecap="round" stroke-linejoin="round"/>
<path d="M1.45312 45.1519C1.45312 45.1519 29.6712 60.4894 61.9812 45.1519" stroke="#222222" stroke-width="1.5" stroke-linecap="round" stroke-linejoin="round"/>
<path d="M31.7217 20.2577V0.900635" stroke="#222222" stroke-width="1.5" stroke-linecap="round" stroke-linejoin="round"/>
<path d="M11.5155 21.7931L1.45312 5.5614" stroke="#222222" stroke-width="1.5" stroke-linecap="round" stroke-linejoin="round"/>
<path d="M52.1445 20.2576L64.5464 5.5614" stroke="#222222" stroke-width="1.5" stroke-linecap="round" stroke-linejoin="round"/>
</svg>
