<svg width="70" height="70" viewBox="0 0 70 70" fill="none" xmlns="http://www.w3.org/2000/svg">
<g clip-path="url(#clip0_1220_9974)">
<path d="M34.9939 69.0707C53.814 69.0707 69.0707 53.814 69.0707 34.9939C69.0707 16.1737 53.814 0.916992 34.9939 0.916992C16.1737 0.916992 0.916992 16.1737 0.916992 34.9939C0.916992 53.814 16.1737 69.0707 34.9939 69.0707Z" fill="white" stroke="#222222" stroke-width="1.5" stroke-miterlimit="10"/>
<path d="M48.5292 19.8323L21.4707 47.9423" stroke="#222222" stroke-width="1.5" stroke-miterlimit="10"/>
<path d="M26.7283 17.5092C26.7283 18.2795 26.3737 18.6586 25.6645 18.6586H19.7344V22.9992C20.5291 22.3878 21.4217 22.0822 22.3877 22.0822C23.9772 22.0822 25.1632 22.5835 25.9213 23.5983C26.6794 24.6132 27.0706 25.9215 27.0706 27.5477C27.0706 29.0271 26.6182 30.2743 25.7012 31.3258C24.7964 32.3651 23.6348 32.8909 22.2165 32.8909C20.5169 32.8909 19.2086 32.2184 18.2916 30.8734C17.8636 30.2254 17.6436 29.5896 17.6436 28.9538C17.6436 28.2691 17.9859 27.9145 18.6829 27.9145C19.1597 27.9145 19.4776 28.1712 19.6243 28.6726C19.7222 29.0394 19.9178 29.4184 20.2235 29.7974C20.6759 30.3477 21.3117 30.6167 22.1309 30.6167C22.9501 30.6167 23.647 30.3232 24.1973 29.7485C24.7475 29.1739 25.0165 28.428 25.0165 27.511C25.0165 26.4717 24.7719 25.6769 24.2829 25.1512C23.7938 24.6132 23.1091 24.3564 22.2165 24.3564C21.6663 24.3564 21.2016 24.4787 20.8104 24.711C20.4191 24.9433 20.0034 25.2979 19.5754 25.787C19.3187 26.0437 19.0497 26.1782 18.7807 26.1782C18.475 26.1782 18.2182 26.056 17.9981 25.8114C17.7781 25.5669 17.6802 25.249 17.6802 24.8822V17.5215C17.6802 16.7878 18.0104 16.421 18.6706 16.421H25.6767C26.3859 16.421 26.7405 16.7878 26.7405 17.5215L26.7283 17.5092Z" fill="#222222"/>
<path d="M40.1538 39.9703V53.9214C40.1538 54.6795 39.8114 55.0463 39.1389 55.0463C38.4665 55.0463 38.0752 54.6672 38.0752 53.9214V39.9703C38.0752 39.1878 38.4298 38.7965 39.1389 38.7965C39.8481 38.7965 40.1538 39.1878 40.1538 39.9703Z" fill="#222222"/>
<path d="M56.9169 46.9153C56.9169 49.1651 56.3545 51.1214 55.2296 52.7965C54.1047 54.4594 52.6864 55.2908 50.9623 55.2908C49.2383 55.2908 47.8444 54.4594 46.7318 52.7843C45.6191 51.1092 45.0444 49.1528 45.0444 46.9153C45.0444 44.6777 45.6069 42.7336 46.7318 41.0707C47.8567 39.4079 49.2628 38.5764 50.9623 38.5764C52.6619 38.5764 54.1047 39.4079 55.2296 41.0707C56.3545 42.7336 56.9169 44.6777 56.9169 46.9153ZM48.1623 51.2437C48.8593 52.4297 49.8008 53.0288 50.9623 53.0288C52.1239 53.0288 53.0776 52.4297 53.7746 51.2437C54.4715 50.0576 54.8383 48.6148 54.8383 46.9153C54.8383 45.2157 54.4837 43.7974 53.7746 42.5991C53.0654 41.4009 52.1239 40.814 50.9501 40.814C49.7763 40.814 48.8715 41.4131 48.1623 42.5991C47.4532 43.7852 47.0986 45.2279 47.0986 46.9153C47.0986 48.6026 47.4532 50.0576 48.1501 51.2437H48.1623Z" fill="#222222"/>
</g>
<defs>
<clipPath id="clip0_1220_9974">
<rect width="70" height="70" fill="white"/>
</clipPath>
</defs>
</svg>